<svg xmlns="http://www.w3.org/2000/svg" version="1.1" xmlns:xlink="http://www.w3.org/1999/xlink" xmlns:svgjs="http://svgjs.dev/svgjs" width="1920" height="1080" preserveAspectRatio="none" viewBox="0 0 1920 1080"><g mask="url(&quot;#SvgjsMask1013&quot;)" fill="none"><path d="M-348.24 491.22C-212.82 492.3-85.93 626.22 176.38 626.22 438.69 626.22 409.64 477.94 701 491.22 992.36 504.5 1028.81 1069.41 1225.62 1136.33" stroke="rgba(160, 223, 245, 1)" stroke-width="2"></path><path d="M-370.1 316.49C-196.29 321.92-48.33 524.11 270.93 586.49 590.18 648.87 447.78 1099.4 591.44 1193.11" stroke="rgba(160, 223, 245, 1)" stroke-width="2"></path><path d="M-155.37 226.21C80.66 227.89 338 400.8 761.14 453.01 1184.28 505.22 1022.1 1123.75 1219.39 1235.36" stroke="rgba(160, 223, 245, 1)" stroke-width="2"></path><path d="M-317.04 461.29C-150.06 456.73-43.75 195.45 303.26 212.89 650.27 230.33 676.84 982.81 923.56 1087.77" stroke="rgba(160, 223, 245, 1)" stroke-width="2"></path><path d="M-347.2 511.24C-101.43 509.46 201.26 249.73 606.77 273.64 1012.28 297.55 861.18 1113.36 1083.75 1281.02" stroke="rgba(160, 223, 245, 1)" stroke-width="2"></path></g><defs><mask id="SvgjsMask1013"><rect width="1920" height="1080" fill="#ffffff"></rect></mask></defs></svg>